<?xml version="1.0" encoding="UTF-8" standalone="no"?>
<!DOCTYPE svg PUBLIC "-//W3C//DTD SVG 1.1//EN"
 "http://www.w3.org/Graphics/SVG/1.1/DTD/svg11.dtd">
<!-- Generated by graphviz version 2.40.1 (20161225.0304)
 -->
<!-- Title: dependencies Pages: 1 -->
<svg width="861pt" height="211pt"
 viewBox="0.00 0.00 861.00 211.00" xmlns="http://www.w3.org/2000/svg" xmlns:xlink="http://www.w3.org/1999/xlink">
<g id="graph0" class="graph" transform="scale(1 1) rotate(0) translate(4 207)">
<title>dependencies</title>
<polygon fill="#ffffff" stroke="transparent" points="-4,4 -4,-207 857,-207 857,4 -4,4"/>
<text text-anchor="start" x="405.5091" y="-42.4" font-family="sans-serif" font-weight="bold" font-size="14.00" fill="#000000">Legend</text>
<polygon fill="#ffffb3" stroke="transparent" points="192.5,-10 192.5,-30 212.5,-30 212.5,-10 192.5,-10"/>
<text text-anchor="start" x="216.129" y="-15.4" font-family="sans-serif" font-size="14.00" fill="#000000"> &#160;Declarations</text>
<polygon fill="#8dd3c7" stroke="transparent" points="305.5,-10 305.5,-30 325.5,-30 325.5,-10 305.5,-10"/>
<text text-anchor="start" x="329.2251" y="-15.4" font-family="sans-serif" font-size="14.00" fill="#000000"> &#160;Module</text>
<polygon fill="#80b1d3" stroke="transparent" points="391.5,-10 391.5,-30 411.5,-30 411.5,-10 391.5,-10"/>
<text text-anchor="start" x="415.2812" y="-15.4" font-family="sans-serif" font-size="14.00" fill="#000000"> &#160;Bootstrap</text>
<polygon fill="#fdb462" stroke="transparent" points="488.5,-10 488.5,-30 508.5,-30 508.5,-10 488.5,-10"/>
<text text-anchor="start" x="512.1732" y="-15.4" font-family="sans-serif" font-size="14.00" fill="#000000"> &#160;Providers</text>
<polygon fill="#fb8072" stroke="transparent" points="584.5,-10 584.5,-30 604.5,-30 604.5,-10 584.5,-10"/>
<text text-anchor="start" x="608.2258" y="-15.4" font-family="sans-serif" font-size="14.00" fill="#000000"> &#160;Exports</text>
<g id="clust1" class="cluster">
<title>cluster_CartModule</title>
<polygon fill="none" stroke="#000000" stroke-dasharray="1,5" points="8,-70 8,-195 845,-195 845,-70 8,-70"/>
</g>
<g id="clust2" class="cluster">
<title>cluster_CartModule_declarations</title>
<polygon fill="none" stroke="#000000" points="16,-78 16,-130 837,-130 837,-78 16,-78"/>
</g>
<!-- CartComponent -->
<g id="node1" class="node">
<title>CartComponent</title>
<polygon fill="#ffffb3" stroke="#000000" points="828.9357,-122 723.0643,-122 723.0643,-86 828.9357,-86 828.9357,-122"/>
<text text-anchor="middle" x="776" y="-99.8" font-family="Times,serif" font-size="14.00" fill="#000000">CartComponent</text>
</g>
<!-- CartModule -->
<g id="node6" class="node">
<title>CartModule</title>
<polygon fill="#8dd3c7" stroke="#000000" points="507.6529,-187 504.6529,-191 483.6529,-191 480.6529,-187 424.3471,-187 424.3471,-151 507.6529,-151 507.6529,-187"/>
<text text-anchor="middle" x="466" y="-164.8" font-family="Times,serif" font-size="14.00" fill="#000000">CartModule</text>
</g>
<!-- CartComponent&#45;&gt;CartModule -->
<g id="edge1" class="edge">
<title>CartComponent&#45;&gt;CartModule</title>
<path fill="none" stroke="#000000" d="M776,-122.2843C776,-143.3211 776,-175 776,-175 776,-175 517.808,-175 517.808,-175"/>
<polygon fill="#000000" stroke="#000000" points="517.808,-171.5001 507.808,-175 517.8079,-178.5001 517.808,-171.5001"/>
</g>
<!-- LineItemListComponent -->
<g id="node2" class="node">
<title>LineItemListComponent</title>
<polygon fill="#ffffb3" stroke="#000000" points="705.4256,-122 550.5744,-122 550.5744,-86 705.4256,-86 705.4256,-122"/>
<text text-anchor="middle" x="628" y="-99.8" font-family="Times,serif" font-size="14.00" fill="#000000">LineItemListComponent</text>
</g>
<!-- LineItemListComponent&#45;&gt;CartModule -->
<g id="edge2" class="edge">
<title>LineItemListComponent&#45;&gt;CartModule</title>
<path fill="none" stroke="#000000" d="M628,-122.0225C628,-139.3734 628,-163 628,-163 628,-163 517.719,-163 517.719,-163"/>
<polygon fill="#000000" stroke="#000000" points="517.7191,-159.5001 507.719,-163 517.719,-166.5001 517.7191,-159.5001"/>
</g>
<!-- LineItemComponent -->
<g id="node3" class="node">
<title>LineItemComponent</title>
<polygon fill="#ffffb3" stroke="#000000" points="532.1471,-122 399.8529,-122 399.8529,-86 532.1471,-86 532.1471,-122"/>
<text text-anchor="middle" x="466" y="-99.8" font-family="Times,serif" font-size="14.00" fill="#000000">LineItemComponent</text>
</g>
<!-- LineItemComponent&#45;&gt;CartModule -->
<g id="edge3" class="edge">
<title>LineItemComponent&#45;&gt;CartModule</title>
<path fill="none" stroke="#000000" d="M466,-122.1061C466,-122.1061 466,-140.991 466,-140.991"/>
<polygon fill="#000000" stroke="#000000" points="462.5001,-140.9909 466,-150.991 469.5001,-140.991 462.5001,-140.9909"/>
</g>
<!-- OrderTotalSummaryComponent -->
<g id="node4" class="node">
<title>OrderTotalSummaryComponent</title>
<polygon fill="#ffffb3" stroke="#000000" points="381.9622,-122 184.0378,-122 184.0378,-86 381.9622,-86 381.9622,-122"/>
<text text-anchor="middle" x="283" y="-99.8" font-family="Times,serif" font-size="14.00" fill="#000000">OrderTotalSummaryComponent</text>
</g>
<!-- OrderTotalSummaryComponent&#45;&gt;CartModule -->
<g id="edge4" class="edge">
<title>OrderTotalSummaryComponent&#45;&gt;CartModule</title>
<path fill="none" stroke="#000000" d="M283,-122.0225C283,-139.3734 283,-163 283,-163 283,-163 414.0161,-163 414.0161,-163"/>
<polygon fill="#000000" stroke="#000000" points="414.0161,-166.5001 424.0161,-163 414.0161,-159.5001 414.0161,-166.5001"/>
</g>
<!-- EmptyCartComponent -->
<g id="node5" class="node">
<title>EmptyCartComponent</title>
<polygon fill="#ffffb3" stroke="#000000" points="166.2688,-122 23.7312,-122 23.7312,-86 166.2688,-86 166.2688,-122"/>
<text text-anchor="middle" x="95" y="-99.8" font-family="Times,serif" font-size="14.00" fill="#000000">EmptyCartComponent</text>
</g>
<!-- EmptyCartComponent&#45;&gt;CartModule -->
<g id="edge5" class="edge">
<title>EmptyCartComponent&#45;&gt;CartModule</title>
<path fill="none" stroke="#000000" d="M95,-122.2843C95,-143.3211 95,-175 95,-175 95,-175 414.1628,-175 414.1628,-175"/>
<polygon fill="#000000" stroke="#000000" points="414.1628,-178.5001 424.1628,-175 414.1627,-171.5001 414.1628,-178.5001"/>
</g>
</g>
</svg>
