<?xml version="1.0" encoding="UTF-8" standalone="no"?>
<!DOCTYPE svg PUBLIC "-//W3C//DTD SVG 1.1//EN"
 "http://www.w3.org/Graphics/SVG/1.1/DTD/svg11.dtd">
<!-- Generated by graphviz version 2.40.1 (20161225.0304)
 -->
<!-- Title: dependencies Pages: 1 -->
<svg width="1407pt" height="211pt"
 viewBox="0.00 0.00 1407.00 211.00" xmlns="http://www.w3.org/2000/svg" xmlns:xlink="http://www.w3.org/1999/xlink">
<g id="graph0" class="graph" transform="scale(1 1) rotate(0) translate(4 207)">
<title>dependencies</title>
<polygon fill="#ffffff" stroke="transparent" points="-4,4 -4,-207 1403,-207 1403,4 -4,4"/>
<text text-anchor="start" x="678.5091" y="-42.4" font-family="sans-serif" font-weight="bold" font-size="14.00" fill="#000000">Legend</text>
<polygon fill="#ffffb3" stroke="transparent" points="465.5,-10 465.5,-30 485.5,-30 485.5,-10 465.5,-10"/>
<text text-anchor="start" x="489.129" y="-15.4" font-family="sans-serif" font-size="14.00" fill="#000000"> &#160;Declarations</text>
<polygon fill="#8dd3c7" stroke="transparent" points="578.5,-10 578.5,-30 598.5,-30 598.5,-10 578.5,-10"/>
<text text-anchor="start" x="602.2251" y="-15.4" font-family="sans-serif" font-size="14.00" fill="#000000"> &#160;Module</text>
<polygon fill="#80b1d3" stroke="transparent" points="664.5,-10 664.5,-30 684.5,-30 684.5,-10 664.5,-10"/>
<text text-anchor="start" x="688.2812" y="-15.4" font-family="sans-serif" font-size="14.00" fill="#000000"> &#160;Bootstrap</text>
<polygon fill="#fdb462" stroke="transparent" points="761.5,-10 761.5,-30 781.5,-30 781.5,-10 761.5,-10"/>
<text text-anchor="start" x="785.1732" y="-15.4" font-family="sans-serif" font-size="14.00" fill="#000000"> &#160;Providers</text>
<polygon fill="#fb8072" stroke="transparent" points="857.5,-10 857.5,-30 877.5,-30 877.5,-10 857.5,-10"/>
<text text-anchor="start" x="881.2258" y="-15.4" font-family="sans-serif" font-size="14.00" fill="#000000"> &#160;Exports</text>
<g id="clust1" class="cluster">
<title>cluster_UserModule</title>
<polygon fill="none" stroke="#000000" stroke-dasharray="1,5" points="8,-70 8,-195 1391,-195 1391,-70 8,-70"/>
</g>
<g id="clust2" class="cluster">
<title>cluster_UserModule_declarations</title>
<polygon fill="none" stroke="#000000" points="138,-78 138,-130 1383,-130 1383,-78 138,-78"/>
</g>
<g id="clust11" class="cluster">
<title>cluster_UserModule_imports</title>
<polygon fill="none" stroke="#000000" points="16,-78 16,-130 130,-130 130,-78 16,-78"/>
</g>
<!-- OverviewComponent -->
<g id="node1" class="node">
<title>OverviewComponent</title>
<polygon fill="#ffffb3" stroke="#000000" points="1375.0268,-122 1238.9732,-122 1238.9732,-86 1375.0268,-86 1375.0268,-122"/>
<text text-anchor="middle" x="1307" y="-99.8" font-family="Times,serif" font-size="14.00" fill="#000000">OverviewComponent</text>
</g>
<!-- UserModule -->
<g id="node9" class="node">
<title>UserModule</title>
<polygon fill="#8dd3c7" stroke="#000000" points="720.9762,-187 717.9762,-191 696.9762,-191 693.9762,-187 635.0238,-187 635.0238,-151 720.9762,-151 720.9762,-187"/>
<text text-anchor="middle" x="678" y="-164.8" font-family="Times,serif" font-size="14.00" fill="#000000">UserModule</text>
</g>
<!-- OverviewComponent&#45;&gt;UserModule -->
<g id="edge1" class="edge">
<title>OverviewComponent&#45;&gt;UserModule</title>
<path fill="none" stroke="#000000" d="M1307,-122.0109C1307,-144.4852 1307,-180 1307,-180 1307,-180 731.2337,-180 731.2337,-180"/>
<polygon fill="#000000" stroke="#000000" points="731.2338,-176.5001 721.2337,-180 731.2337,-183.5001 731.2338,-176.5001"/>
</g>
<!-- OrderListItemComponent -->
<g id="node2" class="node">
<title>OrderListItemComponent</title>
<polygon fill="#ffffb3" stroke="#000000" points="1220.9101,-122 1059.0899,-122 1059.0899,-86 1220.9101,-86 1220.9101,-122"/>
<text text-anchor="middle" x="1140" y="-99.8" font-family="Times,serif" font-size="14.00" fill="#000000">OrderListItemComponent</text>
</g>
<!-- OrderListItemComponent&#45;&gt;UserModule -->
<g id="edge2" class="edge">
<title>OrderListItemComponent&#45;&gt;UserModule</title>
<path fill="none" stroke="#000000" d="M1140,-122.1289C1140,-142.5724 1140,-173 1140,-173 1140,-173 731.049,-173 731.049,-173"/>
<polygon fill="#000000" stroke="#000000" points="731.049,-169.5001 721.049,-173 731.0489,-176.5001 731.049,-169.5001"/>
</g>
<!-- OrdersComponent -->
<g id="node3" class="node">
<title>OrdersComponent</title>
<polygon fill="#ffffb3" stroke="#000000" points="1041.9201,-122 922.0799,-122 922.0799,-86 1041.9201,-86 1041.9201,-122"/>
<text text-anchor="middle" x="982" y="-99.8" font-family="Times,serif" font-size="14.00" fill="#000000">OrdersComponent</text>
</g>
<!-- OrdersComponent&#45;&gt;UserModule -->
<g id="edge3" class="edge">
<title>OrdersComponent&#45;&gt;UserModule</title>
<path fill="none" stroke="#000000" d="M982,-122.2667C982,-140.5552 982,-166 982,-166 982,-166 731.2329,-166 731.2329,-166"/>
<polygon fill="#000000" stroke="#000000" points="731.233,-162.5001 721.2329,-166 731.2329,-169.5001 731.233,-162.5001"/>
</g>
<!-- ReturnsComponent -->
<g id="node4" class="node">
<title>ReturnsComponent</title>
<polygon fill="#ffffb3" stroke="#000000" points="904.3795,-122 779.6205,-122 779.6205,-86 904.3795,-86 904.3795,-122"/>
<text text-anchor="middle" x="842" y="-99.8" font-family="Times,serif" font-size="14.00" fill="#000000">ReturnsComponent</text>
</g>
<!-- ReturnsComponent&#45;&gt;UserModule -->
<g id="edge4" class="edge">
<title>ReturnsComponent&#45;&gt;UserModule</title>
<path fill="none" stroke="#000000" d="M842,-122.0091C842,-138.0494 842,-159 842,-159 842,-159 731.0891,-159 731.0891,-159"/>
<polygon fill="#000000" stroke="#000000" points="731.0891,-155.5001 721.0891,-159 731.089,-162.5001 731.0891,-155.5001"/>
</g>
<!-- ReturnListItemComponent -->
<g id="node5" class="node">
<title>ReturnListItemComponent</title>
<polygon fill="#ffffb3" stroke="#000000" points="761.3697,-122 594.6303,-122 594.6303,-86 761.3697,-86 761.3697,-122"/>
<text text-anchor="middle" x="678" y="-99.8" font-family="Times,serif" font-size="14.00" fill="#000000">ReturnListItemComponent</text>
</g>
<!-- ReturnListItemComponent&#45;&gt;UserModule -->
<g id="edge5" class="edge">
<title>ReturnListItemComponent&#45;&gt;UserModule</title>
<path fill="none" stroke="#000000" d="M678,-122.1061C678,-122.1061 678,-140.991 678,-140.991"/>
<polygon fill="#000000" stroke="#000000" points="674.5001,-140.9909 678,-150.991 681.5001,-140.991 674.5001,-140.9909"/>
</g>
<!-- UserComponent -->
<g id="node6" class="node">
<title>UserComponent</title>
<polygon fill="#ffffb3" stroke="#000000" points="576.7591,-122 469.2409,-122 469.2409,-86 576.7591,-86 576.7591,-122"/>
<text text-anchor="middle" x="523" y="-99.8" font-family="Times,serif" font-size="14.00" fill="#000000">UserComponent</text>
</g>
<!-- UserComponent&#45;&gt;UserModule -->
<g id="edge6" class="edge">
<title>UserComponent&#45;&gt;UserModule</title>
<path fill="none" stroke="#000000" d="M523,-122.0091C523,-138.0494 523,-159 523,-159 523,-159 624.8239,-159 624.8239,-159"/>
<polygon fill="#000000" stroke="#000000" points="624.8239,-162.5001 634.8239,-159 624.8238,-155.5001 624.8239,-162.5001"/>
</g>
<!-- AddressesComponent -->
<g id="node7" class="node">
<title>AddressesComponent</title>
<polygon fill="#ffffb3" stroke="#000000" points="451.3627,-122 312.6373,-122 312.6373,-86 451.3627,-86 451.3627,-122"/>
<text text-anchor="middle" x="382" y="-99.8" font-family="Times,serif" font-size="14.00" fill="#000000">AddressesComponent</text>
</g>
<!-- AddressesComponent&#45;&gt;UserModule -->
<g id="edge7" class="edge">
<title>AddressesComponent&#45;&gt;UserModule</title>
<path fill="none" stroke="#000000" d="M382,-122.2667C382,-140.5552 382,-166 382,-166 382,-166 624.9591,-166 624.9591,-166"/>
<polygon fill="#000000" stroke="#000000" points="624.9591,-169.5001 634.9591,-166 624.959,-162.5001 624.9591,-169.5001"/>
</g>
<!-- OrderDetailComponent -->
<g id="node8" class="node">
<title>OrderDetailComponent</title>
<polygon fill="#ffffb3" stroke="#000000" points="294.1825,-122 145.8175,-122 145.8175,-86 294.1825,-86 294.1825,-122"/>
<text text-anchor="middle" x="220" y="-99.8" font-family="Times,serif" font-size="14.00" fill="#000000">OrderDetailComponent</text>
</g>
<!-- OrderDetailComponent&#45;&gt;UserModule -->
<g id="edge8" class="edge">
<title>OrderDetailComponent&#45;&gt;UserModule</title>
<path fill="none" stroke="#000000" d="M220,-122.1289C220,-142.5724 220,-173 220,-173 220,-173 624.9125,-173 624.9125,-173"/>
<polygon fill="#000000" stroke="#000000" points="624.9125,-176.5001 634.9125,-173 624.9124,-169.5001 624.9125,-176.5001"/>
</g>
<!-- SharedModule -->
<g id="node10" class="node">
<title>SharedModule</title>
<polygon fill="#8dd3c7" stroke="#000000" points="122.4231,-122 119.4231,-126 98.4231,-126 95.4231,-122 23.5769,-122 23.5769,-86 122.4231,-86 122.4231,-122"/>
<text text-anchor="middle" x="73" y="-99.8" font-family="Times,serif" font-size="14.00" fill="#000000">SharedModule</text>
</g>
<!-- SharedModule&#45;&gt;UserModule -->
<g id="edge9" class="edge">
<title>SharedModule&#45;&gt;UserModule</title>
<path fill="none" stroke="#000000" d="M73,-122.0109C73,-144.4852 73,-180 73,-180 73,-180 624.9749,-180 624.9749,-180"/>
<polygon fill="#000000" stroke="#000000" points="624.9749,-183.5001 634.9749,-180 624.9749,-176.5001 624.9749,-183.5001"/>
</g>
</g>
</svg>
