<?xml version="1.0" encoding="UTF-8" standalone="no"?>
<!DOCTYPE svg PUBLIC "-//W3C//DTD SVG 1.1//EN"
 "http://www.w3.org/Graphics/SVG/1.1/DTD/svg11.dtd">
<!-- Generated by graphviz version 2.40.1 (20161225.0304)
 -->
<!-- Title: dependencies Pages: 1 -->
<svg width="1758pt" height="211pt"
 viewBox="0.00 0.00 1758.00 211.00" xmlns="http://www.w3.org/2000/svg" xmlns:xlink="http://www.w3.org/1999/xlink">
<g id="graph0" class="graph" transform="scale(1 1) rotate(0) translate(4 207)">
<title>dependencies</title>
<polygon fill="#ffffff" stroke="transparent" points="-4,4 -4,-207 1754,-207 1754,4 -4,4"/>
<text text-anchor="start" x="854.0091" y="-42.4" font-family="sans-serif" font-weight="bold" font-size="14.00" fill="#000000">Legend</text>
<polygon fill="#ffffb3" stroke="transparent" points="641,-10 641,-30 661,-30 661,-10 641,-10"/>
<text text-anchor="start" x="664.629" y="-15.4" font-family="sans-serif" font-size="14.00" fill="#000000"> &#160;Declarations</text>
<polygon fill="#8dd3c7" stroke="transparent" points="754,-10 754,-30 774,-30 774,-10 754,-10"/>
<text text-anchor="start" x="777.7251" y="-15.4" font-family="sans-serif" font-size="14.00" fill="#000000"> &#160;Module</text>
<polygon fill="#80b1d3" stroke="transparent" points="840,-10 840,-30 860,-30 860,-10 840,-10"/>
<text text-anchor="start" x="863.7812" y="-15.4" font-family="sans-serif" font-size="14.00" fill="#000000"> &#160;Bootstrap</text>
<polygon fill="#fdb462" stroke="transparent" points="937,-10 937,-30 957,-30 957,-10 937,-10"/>
<text text-anchor="start" x="960.6732" y="-15.4" font-family="sans-serif" font-size="14.00" fill="#000000"> &#160;Providers</text>
<polygon fill="#fb8072" stroke="transparent" points="1033,-10 1033,-30 1053,-30 1053,-10 1033,-10"/>
<text text-anchor="start" x="1056.7258" y="-15.4" font-family="sans-serif" font-size="14.00" fill="#000000"> &#160;Exports</text>
<g id="clust1" class="cluster">
<title>cluster_HomeModule</title>
<polygon fill="none" stroke="#000000" stroke-dasharray="1,5" points="8,-70 8,-195 1742,-195 1742,-70 8,-70"/>
</g>
<g id="clust2" class="cluster">
<title>cluster_HomeModule_declarations</title>
<polygon fill="none" stroke="#000000" points="138,-78 138,-130 1734,-130 1734,-78 138,-78"/>
</g>
<g id="clust13" class="cluster">
<title>cluster_HomeModule_imports</title>
<polygon fill="none" stroke="#000000" points="16,-78 16,-130 130,-130 130,-78 16,-78"/>
</g>
<!-- HomeComponent -->
<g id="node1" class="node">
<title>HomeComponent</title>
<polygon fill="#ffffb3" stroke="#000000" points="1725.5451,-122 1610.4549,-122 1610.4549,-86 1725.5451,-86 1725.5451,-122"/>
<text text-anchor="middle" x="1668" y="-99.8" font-family="Times,serif" font-size="14.00" fill="#000000">HomeComponent</text>
</g>
<!-- HomeModule -->
<g id="node11" class="node">
<title>HomeModule</title>
<polygon fill="#8dd3c7" stroke="#000000" points="939.7619,-187 936.7619,-191 915.7619,-191 912.7619,-187 846.2381,-187 846.2381,-151 939.7619,-151 939.7619,-187"/>
<text text-anchor="middle" x="893" y="-164.8" font-family="Times,serif" font-size="14.00" fill="#000000">HomeModule</text>
</g>
<!-- HomeComponent&#45;&gt;HomeModule -->
<g id="edge1" class="edge">
<title>HomeComponent&#45;&gt;HomeModule</title>
<path fill="none" stroke="#000000" d="M1668,-122.0908C1668,-145.1328 1668,-182 1668,-182 1668,-182 950.0234,-182 950.0234,-182"/>
<polygon fill="#000000" stroke="#000000" points="950.0234,-178.5001 940.0234,-182 950.0233,-185.5001 950.0234,-178.5001"/>
</g>
<!-- ProductListComponent -->
<g id="node2" class="node">
<title>ProductListComponent</title>
<polygon fill="#ffffb3" stroke="#000000" points="1592.1596,-122 1445.8404,-122 1445.8404,-86 1592.1596,-86 1592.1596,-122"/>
<text text-anchor="middle" x="1519" y="-99.8" font-family="Times,serif" font-size="14.00" fill="#000000">ProductListComponent</text>
</g>
<!-- ProductListComponent&#45;&gt;HomeModule -->
<g id="edge2" class="edge">
<title>ProductListComponent&#45;&gt;HomeModule</title>
<path fill="none" stroke="#000000" d="M1519,-122.2843C1519,-143.3211 1519,-175 1519,-175 1519,-175 949.7957,-175 949.7957,-175"/>
<polygon fill="#000000" stroke="#000000" points="949.7958,-171.5001 939.7957,-175 949.7957,-178.5001 949.7958,-171.5001"/>
</g>
<!-- ProductListItemComponent -->
<g id="node3" class="node">
<title>ProductListItemComponent</title>
<polygon fill="#ffffb3" stroke="#000000" points="1428.3159,-122 1255.6841,-122 1255.6841,-86 1428.3159,-86 1428.3159,-122"/>
<text text-anchor="middle" x="1342" y="-99.8" font-family="Times,serif" font-size="14.00" fill="#000000">ProductListItemComponent</text>
</g>
<!-- ProductListItemComponent&#45;&gt;HomeModule -->
<g id="edge3" class="edge">
<title>ProductListItemComponent&#45;&gt;HomeModule</title>
<path fill="none" stroke="#000000" d="M1342,-122.1061C1342,-141.3391 1342,-169 1342,-169 1342,-169 949.7802,-169 949.7802,-169"/>
<polygon fill="#000000" stroke="#000000" points="949.7803,-165.5001 939.7802,-169 949.7802,-172.5001 949.7803,-165.5001"/>
</g>
<!-- TaxonsComponent -->
<g id="node4" class="node">
<title>TaxonsComponent</title>
<polygon fill="#ffffb3" stroke="#000000" points="1238.045,-122 1115.955,-122 1115.955,-86 1238.045,-86 1238.045,-122"/>
<text text-anchor="middle" x="1177" y="-99.8" font-family="Times,serif" font-size="14.00" fill="#000000">TaxonsComponent</text>
</g>
<!-- TaxonsComponent&#45;&gt;HomeModule -->
<g id="edge4" class="edge">
<title>TaxonsComponent&#45;&gt;HomeModule</title>
<path fill="none" stroke="#000000" d="M1177,-122.0225C1177,-139.3734 1177,-163 1177,-163 1177,-163 949.8968,-163 949.8968,-163"/>
<polygon fill="#000000" stroke="#000000" points="949.8969,-159.5001 939.8968,-163 949.8968,-166.5001 949.8969,-159.5001"/>
</g>
<!-- FilterComponent -->
<g id="node5" class="node">
<title>FilterComponent</title>
<polygon fill="#ffffb3" stroke="#000000" points="1097.6625,-122 986.3375,-122 986.3375,-86 1097.6625,-86 1097.6625,-122"/>
<text text-anchor="middle" x="1042" y="-99.8" font-family="Times,serif" font-size="14.00" fill="#000000">FilterComponent</text>
</g>
<!-- FilterComponent&#45;&gt;HomeModule -->
<g id="edge5" class="edge">
<title>FilterComponent&#45;&gt;HomeModule</title>
<path fill="none" stroke="#000000" d="M1042,-122.2396C1042,-137.5706 1042,-157 1042,-157 1042,-157 950.1445,-157 950.1445,-157"/>
<polygon fill="#000000" stroke="#000000" points="950.1446,-153.5001 940.1445,-157 950.1445,-160.5001 950.1446,-153.5001"/>
</g>
<!-- BreadcrumbComponent -->
<g id="node6" class="node">
<title>BreadcrumbComponent</title>
<polygon fill="#ffffb3" stroke="#000000" points="968.0253,-122 817.9747,-122 817.9747,-86 968.0253,-86 968.0253,-122"/>
<text text-anchor="middle" x="893" y="-99.8" font-family="Times,serif" font-size="14.00" fill="#000000">BreadcrumbComponent</text>
</g>
<!-- BreadcrumbComponent&#45;&gt;HomeModule -->
<g id="edge6" class="edge">
<title>BreadcrumbComponent&#45;&gt;HomeModule</title>
<path fill="none" stroke="#000000" d="M893,-122.1061C893,-122.1061 893,-140.991 893,-140.991"/>
<polygon fill="#000000" stroke="#000000" points="889.5001,-140.9909 893,-150.991 896.5001,-140.991 889.5001,-140.9909"/>
</g>
<!-- ContentHeaderComponent -->
<g id="node7" class="node">
<title>ContentHeaderComponent</title>
<polygon fill="#ffffb3" stroke="#000000" points="800.0758,-122 633.9242,-122 633.9242,-86 800.0758,-86 800.0758,-122"/>
<text text-anchor="middle" x="717" y="-99.8" font-family="Times,serif" font-size="14.00" fill="#000000">ContentHeaderComponent</text>
</g>
<!-- ContentHeaderComponent&#45;&gt;HomeModule -->
<g id="edge7" class="edge">
<title>ContentHeaderComponent&#45;&gt;HomeModule</title>
<path fill="none" stroke="#000000" d="M717,-122.2396C717,-137.5706 717,-157 717,-157 717,-157 835.8352,-157 835.8352,-157"/>
<polygon fill="#000000" stroke="#000000" points="835.8353,-160.5001 845.8352,-157 835.8352,-153.5001 835.8353,-160.5001"/>
</g>
<!-- CustomizeComponent -->
<g id="node8" class="node">
<title>CustomizeComponent</title>
<polygon fill="#ffffb3" stroke="#000000" points="615.7148,-122 474.2852,-122 474.2852,-86 615.7148,-86 615.7148,-122"/>
<text text-anchor="middle" x="545" y="-99.8" font-family="Times,serif" font-size="14.00" fill="#000000">CustomizeComponent</text>
</g>
<!-- CustomizeComponent&#45;&gt;HomeModule -->
<g id="edge8" class="edge">
<title>CustomizeComponent&#45;&gt;HomeModule</title>
<path fill="none" stroke="#000000" d="M545,-122.0225C545,-139.3734 545,-163 545,-163 545,-163 836.0672,-163 836.0672,-163"/>
<polygon fill="#000000" stroke="#000000" points="836.0672,-166.5001 846.0672,-163 836.0671,-159.5001 836.0672,-166.5001"/>
</g>
<!-- FilterSummaryComponent -->
<g id="node9" class="node">
<title>FilterSummaryComponent</title>
<polygon fill="#ffffb3" stroke="#000000" points="456.101,-122 289.899,-122 289.899,-86 456.101,-86 456.101,-122"/>
<text text-anchor="middle" x="373" y="-99.8" font-family="Times,serif" font-size="14.00" fill="#000000">FilterSummaryComponent</text>
</g>
<!-- FilterSummaryComponent&#45;&gt;HomeModule -->
<g id="edge9" class="edge">
<title>FilterSummaryComponent&#45;&gt;HomeModule</title>
<path fill="none" stroke="#000000" d="M373,-122.1061C373,-141.3391 373,-169 373,-169 373,-169 835.9363,-169 835.9363,-169"/>
<polygon fill="#000000" stroke="#000000" points="835.9364,-172.5001 845.9363,-169 835.9363,-165.5001 835.9364,-172.5001"/>
</g>
<!-- ContentComponent -->
<g id="node10" class="node">
<title>ContentComponent</title>
<polygon fill="#ffffb3" stroke="#000000" points="271.6652,-122 146.3348,-122 146.3348,-86 271.6652,-86 271.6652,-122"/>
<text text-anchor="middle" x="209" y="-99.8" font-family="Times,serif" font-size="14.00" fill="#000000">ContentComponent</text>
</g>
<!-- ContentComponent&#45;&gt;HomeModule -->
<g id="edge10" class="edge">
<title>ContentComponent&#45;&gt;HomeModule</title>
<path fill="none" stroke="#000000" d="M209,-122.2843C209,-143.3211 209,-175 209,-175 209,-175 835.9859,-175 835.9859,-175"/>
<polygon fill="#000000" stroke="#000000" points="835.9859,-178.5001 845.9859,-175 835.9859,-171.5001 835.9859,-178.5001"/>
</g>
<!-- SharedModule -->
<g id="node12" class="node">
<title>SharedModule</title>
<polygon fill="#8dd3c7" stroke="#000000" points="122.4231,-122 119.4231,-126 98.4231,-126 95.4231,-122 23.5769,-122 23.5769,-86 122.4231,-86 122.4231,-122"/>
<text text-anchor="middle" x="73" y="-99.8" font-family="Times,serif" font-size="14.00" fill="#000000">SharedModule</text>
</g>
<!-- SharedModule&#45;&gt;HomeModule -->
<g id="edge11" class="edge">
<title>SharedModule&#45;&gt;HomeModule</title>
<path fill="none" stroke="#000000" d="M73,-122.0908C73,-145.1328 73,-182 73,-182 73,-182 835.9681,-182 835.9681,-182"/>
<polygon fill="#000000" stroke="#000000" points="835.9681,-185.5001 845.9681,-182 835.968,-178.5001 835.9681,-185.5001"/>
</g>
</g>
</svg>
