<?xml version="1.0" encoding="UTF-8" standalone="no"?>
<!DOCTYPE svg PUBLIC "-//W3C//DTD SVG 1.1//EN"
 "http://www.w3.org/Graphics/SVG/1.1/DTD/svg11.dtd">
<!-- Generated by graphviz version 2.40.1 (20161225.0304)
 -->
<!-- Title: dependencies Pages: 1 -->
<svg width="620pt" height="284pt"
 viewBox="0.00 0.00 620.00 284.00" xmlns="http://www.w3.org/2000/svg" xmlns:xlink="http://www.w3.org/1999/xlink">
<g id="graph0" class="graph" transform="scale(1 1) rotate(0) translate(4 280)">
<title>dependencies</title>
<polygon fill="#ffffff" stroke="transparent" points="-4,4 -4,-280 616,-280 616,4 -4,4"/>
<text text-anchor="start" x="285.0091" y="-42.4" font-family="sans-serif" font-weight="bold" font-size="14.00" fill="#000000">Legend</text>
<polygon fill="#ffffb3" stroke="transparent" points="72,-10 72,-30 92,-30 92,-10 72,-10"/>
<text text-anchor="start" x="95.629" y="-15.4" font-family="sans-serif" font-size="14.00" fill="#000000"> &#160;Declarations</text>
<polygon fill="#8dd3c7" stroke="transparent" points="185,-10 185,-30 205,-30 205,-10 185,-10"/>
<text text-anchor="start" x="208.7251" y="-15.4" font-family="sans-serif" font-size="14.00" fill="#000000"> &#160;Module</text>
<polygon fill="#80b1d3" stroke="transparent" points="271,-10 271,-30 291,-30 291,-10 271,-10"/>
<text text-anchor="start" x="294.7812" y="-15.4" font-family="sans-serif" font-size="14.00" fill="#000000"> &#160;Bootstrap</text>
<polygon fill="#fdb462" stroke="transparent" points="368,-10 368,-30 388,-30 388,-10 368,-10"/>
<text text-anchor="start" x="391.6732" y="-15.4" font-family="sans-serif" font-size="14.00" fill="#000000"> &#160;Providers</text>
<polygon fill="#fb8072" stroke="transparent" points="464,-10 464,-30 484,-30 484,-10 464,-10"/>
<text text-anchor="start" x="487.7258" y="-15.4" font-family="sans-serif" font-size="14.00" fill="#000000"> &#160;Exports</text>
<g id="clust1" class="cluster">
<title>cluster_SharedModule</title>
<polygon fill="none" stroke="#000000" stroke-dasharray="1,5" points="8,-70 8,-268 604,-268 604,-70 8,-70"/>
</g>
<g id="clust2" class="cluster">
<title>cluster_SharedModule_declarations</title>
<polygon fill="none" stroke="#000000" points="25,-78 25,-130 590,-130 590,-78 25,-78"/>
</g>
<g id="clust8" class="cluster">
<title>cluster_SharedModule_exports</title>
<polygon fill="none" stroke="#000000" points="16,-208 16,-260 596,-260 596,-208 16,-208"/>
</g>
<!-- LoadingIndicatorComponent -->
<g id="node1" class="node">
<title>LoadingIndicatorComponent</title>
<polygon fill="#ffffb3" stroke="#000000" points="582.0224,-122 403.9776,-122 403.9776,-86 582.0224,-86 582.0224,-122"/>
<text text-anchor="middle" x="493" y="-99.8" font-family="Times,serif" font-size="14.00" fill="#000000">LoadingIndicatorComponent</text>
</g>
<!-- SharedModule -->
<g id="node5" class="node">
<title>SharedModule</title>
<polygon fill="#8dd3c7" stroke="#000000" points="236.4231,-187 233.4231,-191 212.4231,-191 209.4231,-187 137.5769,-187 137.5769,-151 236.4231,-151 236.4231,-187"/>
<text text-anchor="middle" x="187" y="-164.8" font-family="Times,serif" font-size="14.00" fill="#000000">SharedModule</text>
</g>
<!-- LoadingIndicatorComponent&#45;&gt;SharedModule -->
<g id="edge1" class="edge">
<title>LoadingIndicatorComponent&#45;&gt;SharedModule</title>
<path fill="none" stroke="#000000" d="M523.5036,-122.0225C523.5036,-139.3734 523.5036,-163 523.5036,-163 523.5036,-163 246.2909,-163 246.2909,-163"/>
<polygon fill="#000000" stroke="#000000" points="246.2909,-159.5001 236.2909,-163 246.2909,-166.5001 246.2909,-159.5001"/>
</g>
<!-- NotificationComponent -->
<g id="node2" class="node">
<title>NotificationComponent</title>
<polygon fill="#ffffb3" stroke="#000000" points="385.4818,-122 236.5182,-122 236.5182,-86 385.4818,-86 385.4818,-122"/>
<text text-anchor="middle" x="311" y="-99.8" font-family="Times,serif" font-size="14.00" fill="#000000">NotificationComponent</text>
</g>
<!-- NotificationComponent&#45;&gt;SharedModule -->
<g id="edge2" class="edge">
<title>NotificationComponent&#45;&gt;SharedModule</title>
<path fill="none" stroke="#000000" d="M236.4529,-104C230.9634,-104 227.519,-104 227.519,-104 227.519,-104 227.519,-140.8939 227.519,-140.8939"/>
<polygon fill="#000000" stroke="#000000" points="224.019,-140.8938 227.519,-150.8939 231.019,-140.8939 224.019,-140.8938"/>
</g>
<!-- KeysPipe -->
<g id="node3" class="node">
<title>KeysPipe</title>
<polygon fill="#ffffb3" stroke="#000000" points="218.6545,-122 149.3455,-122 149.3455,-86 218.6545,-86 218.6545,-122"/>
<text text-anchor="middle" x="184" y="-99.8" font-family="Times,serif" font-size="14.00" fill="#000000">KeysPipe</text>
</g>
<!-- KeysPipe&#45;&gt;SharedModule -->
<g id="edge3" class="edge">
<title>KeysPipe&#45;&gt;SharedModule</title>
<path fill="none" stroke="#000000" d="M184,-122.1061C184,-122.1061 184,-140.991 184,-140.991"/>
<polygon fill="#000000" stroke="#000000" points="180.5001,-140.9909 184,-150.991 187.5001,-140.991 180.5001,-140.9909"/>
</g>
<!-- HumanizePipe -->
<g id="node4" class="node">
<title>HumanizePipe</title>
<polygon fill="#ffffb3" stroke="#000000" points="131.4203,-122 32.5797,-122 32.5797,-86 131.4203,-86 131.4203,-122"/>
<text text-anchor="middle" x="82" y="-99.8" font-family="Times,serif" font-size="14.00" fill="#000000">HumanizePipe</text>
</g>
<!-- HumanizePipe&#45;&gt;SharedModule -->
<g id="edge4" class="edge">
<title>HumanizePipe&#45;&gt;SharedModule</title>
<path fill="none" stroke="#000000" d="M131.3344,-104C138.4818,-104 143.4811,-104 143.4811,-104 143.4811,-104 143.4811,-140.8939 143.4811,-140.8939"/>
<polygon fill="#000000" stroke="#000000" points="139.9811,-140.8938 143.4811,-150.8939 146.9811,-140.8939 139.9811,-140.8938"/>
</g>
<!-- LoadingIndicatorComponent  -->
<g id="node6" class="node">
<title>LoadingIndicatorComponent </title>
<polygon fill="#fb8072" stroke="#000000" points="588.0218,-252 405.9782,-252 405.9782,-216 588.0218,-216 588.0218,-252"/>
<text text-anchor="middle" x="497" y="-229.8" font-family="Times,serif" font-size="14.00" fill="#000000">LoadingIndicatorComponent </text>
</g>
<!-- SharedModule&#45;&gt;LoadingIndicatorComponent  -->
<g id="edge5" class="edge">
<title>SharedModule&#45;&gt;LoadingIndicatorComponent </title>
<path fill="none" stroke="#000000" stroke-dasharray="5,2" d="M236.3354,-175C316.1487,-175 464.7464,-175 464.7464,-175 464.7464,-175 464.7464,-205.9775 464.7464,-205.9775"/>
<polygon fill="#000000" stroke="#000000" points="461.2465,-205.9774 464.7464,-215.9775 468.2465,-205.9775 461.2465,-205.9774"/>
</g>
<!-- NotificationComponent  -->
<g id="node7" class="node">
<title>NotificationComponent </title>
<polygon fill="#fb8072" stroke="#000000" points="388.4826,-252 235.5174,-252 235.5174,-216 388.4826,-216 388.4826,-252"/>
<text text-anchor="middle" x="312" y="-229.8" font-family="Times,serif" font-size="14.00" fill="#000000">NotificationComponent </text>
</g>
<!-- SharedModule&#45;&gt;NotificationComponent  -->
<g id="edge6" class="edge">
<title>SharedModule&#45;&gt;NotificationComponent </title>
<path fill="none" stroke="#000000" stroke-dasharray="5,2" d="M226.668,-187.1061C226.668,-206.3391 226.668,-234 226.668,-234 226.668,-234 227.549,-234 227.549,-234"/>
<polygon fill="#000000" stroke="#000000" points="225.4786,-237.5001 235.4786,-234 225.4785,-230.5001 225.4786,-237.5001"/>
</g>
<!-- KeysPipe  -->
<g id="node8" class="node">
<title>KeysPipe </title>
<polygon fill="#fb8072" stroke="#000000" points="217.6538,-252 144.3462,-252 144.3462,-216 217.6538,-216 217.6538,-252"/>
<text text-anchor="middle" x="181" y="-229.8" font-family="Times,serif" font-size="14.00" fill="#000000">KeysPipe </text>
</g>
<!-- SharedModule&#45;&gt;KeysPipe  -->
<g id="edge7" class="edge">
<title>SharedModule&#45;&gt;KeysPipe </title>
<path fill="none" stroke="#000000" stroke-dasharray="5,2" d="M181,-187.1061C181,-187.1061 181,-205.991 181,-205.991"/>
<polygon fill="#000000" stroke="#000000" points="177.5001,-205.9909 181,-215.991 184.5001,-205.991 177.5001,-205.9909"/>
</g>
<!-- HumanizePipe  -->
<g id="node9" class="node">
<title>HumanizePipe </title>
<polygon fill="#fb8072" stroke="#000000" points="125.9194,-252 24.0806,-252 24.0806,-216 125.9194,-216 125.9194,-252"/>
<text text-anchor="middle" x="75" y="-229.8" font-family="Times,serif" font-size="14.00" fill="#000000">HumanizePipe </text>
</g>
<!-- SharedModule&#45;&gt;HumanizePipe  -->
<g id="edge8" class="edge">
<title>SharedModule&#45;&gt;HumanizePipe </title>
<path fill="none" stroke="#000000" stroke-dasharray="5,2" d="M137.5974,-169C109.3046,-169 79.375,-169 79.375,-169 79.375,-169 79.375,-205.8939 79.375,-205.8939"/>
<polygon fill="#000000" stroke="#000000" points="75.8751,-205.8938 79.375,-215.8939 82.8751,-205.8939 75.8751,-205.8938"/>
</g>
</g>
</svg>
