<?xml version="1.0" encoding="UTF-8" standalone="no"?>
<!DOCTYPE svg PUBLIC "-//W3C//DTD SVG 1.1//EN"
 "http://www.w3.org/Graphics/SVG/1.1/DTD/svg11.dtd">
<!-- Generated by graphviz version 2.40.1 (20161225.0304)
 -->
<!-- Title: dependencies Pages: 1 -->
<svg width="1467pt" height="284pt"
 viewBox="0.00 0.00 1467.00 284.00" xmlns="http://www.w3.org/2000/svg" xmlns:xlink="http://www.w3.org/1999/xlink">
<g id="graph0" class="graph" transform="scale(1 1) rotate(0) translate(4 280)">
<title>dependencies</title>
<polygon fill="#ffffff" stroke="transparent" points="-4,4 -4,-280 1463,-280 1463,4 -4,4"/>
<text text-anchor="start" x="708.5091" y="-42.4" font-family="sans-serif" font-weight="bold" font-size="14.00" fill="#000000">Legend</text>
<polygon fill="#ffffb3" stroke="transparent" points="495.5,-10 495.5,-30 515.5,-30 515.5,-10 495.5,-10"/>
<text text-anchor="start" x="519.129" y="-15.4" font-family="sans-serif" font-size="14.00" fill="#000000"> &#160;Declarations</text>
<polygon fill="#8dd3c7" stroke="transparent" points="608.5,-10 608.5,-30 628.5,-30 628.5,-10 608.5,-10"/>
<text text-anchor="start" x="632.2251" y="-15.4" font-family="sans-serif" font-size="14.00" fill="#000000"> &#160;Module</text>
<polygon fill="#80b1d3" stroke="transparent" points="694.5,-10 694.5,-30 714.5,-30 714.5,-10 694.5,-10"/>
<text text-anchor="start" x="718.2812" y="-15.4" font-family="sans-serif" font-size="14.00" fill="#000000"> &#160;Bootstrap</text>
<polygon fill="#fdb462" stroke="transparent" points="791.5,-10 791.5,-30 811.5,-30 811.5,-10 791.5,-10"/>
<text text-anchor="start" x="815.1732" y="-15.4" font-family="sans-serif" font-size="14.00" fill="#000000"> &#160;Providers</text>
<polygon fill="#fb8072" stroke="transparent" points="887.5,-10 887.5,-30 907.5,-30 907.5,-10 887.5,-10"/>
<text text-anchor="start" x="911.2258" y="-15.4" font-family="sans-serif" font-size="14.00" fill="#000000"> &#160;Exports</text>
<g id="clust1" class="cluster">
<title>cluster_ProductModule</title>
<polygon fill="none" stroke="#000000" stroke-dasharray="1,5" points="8,-70 8,-268 1451,-268 1451,-70 8,-70"/>
</g>
<g id="clust2" class="cluster">
<title>cluster_ProductModule_declarations</title>
<polygon fill="none" stroke="#000000" points="138,-78 138,-130 1443,-130 1443,-78 138,-78"/>
</g>
<g id="clust10" class="cluster">
<title>cluster_ProductModule_imports</title>
<polygon fill="none" stroke="#000000" points="16,-78 16,-130 130,-130 130,-78 16,-78"/>
</g>
<g id="clust11" class="cluster">
<title>cluster_ProductModule_exports</title>
<polygon fill="none" stroke="#000000" points="105,-208 105,-260 1288,-260 1288,-208 105,-208"/>
</g>
<!-- ProductDetailPageComponent -->
<g id="node1" class="node">
<title>ProductDetailPageComponent</title>
<polygon fill="#ffffb3" stroke="#000000" points="1435.3004,-122 1248.6996,-122 1248.6996,-86 1435.3004,-86 1435.3004,-122"/>
<text text-anchor="middle" x="1342" y="-99.8" font-family="Times,serif" font-size="14.00" fill="#000000">ProductDetailPageComponent</text>
</g>
<!-- ProductModule -->
<g id="node8" class="node">
<title>ProductModule</title>
<polygon fill="#8dd3c7" stroke="#000000" points="749.5982,-187 746.5982,-191 725.5982,-191 722.5982,-187 646.4018,-187 646.4018,-151 749.5982,-151 749.5982,-187"/>
<text text-anchor="middle" x="698" y="-164.8" font-family="Times,serif" font-size="14.00" fill="#000000">ProductModule</text>
</g>
<!-- ProductDetailPageComponent&#45;&gt;ProductModule -->
<g id="edge1" class="edge">
<title>ProductDetailPageComponent&#45;&gt;ProductModule</title>
<path fill="none" stroke="#000000" d="M1264.375,-122.1061C1264.375,-141.3391 1264.375,-169 1264.375,-169 1264.375,-169 759.7635,-169 759.7635,-169"/>
<polygon fill="#000000" stroke="#000000" points="759.7635,-165.5001 749.7635,-169 759.7634,-172.5001 759.7635,-165.5001"/>
</g>
<!-- ProductComponent -->
<g id="node2" class="node">
<title>ProductComponent</title>
<polygon fill="#ffffb3" stroke="#000000" points="1230.3809,-122 1105.6191,-122 1105.6191,-86 1230.3809,-86 1230.3809,-122"/>
<text text-anchor="middle" x="1168" y="-99.8" font-family="Times,serif" font-size="14.00" fill="#000000">ProductComponent</text>
</g>
<!-- ProductComponent&#45;&gt;ProductModule -->
<g id="edge2" class="edge">
<title>ProductComponent&#45;&gt;ProductModule</title>
<path fill="none" stroke="#000000" d="M1168,-122.0225C1168,-139.3734 1168,-163 1168,-163 1168,-163 759.6427,-163 759.6427,-163"/>
<polygon fill="#000000" stroke="#000000" points="759.6427,-159.5001 749.6427,-163 759.6426,-166.5001 759.6427,-159.5001"/>
</g>
<!-- ProductDetailsComponent -->
<g id="node3" class="node">
<title>ProductDetailsComponent</title>
<polygon fill="#ffffb3" stroke="#000000" points="1087.0337,-122 922.9663,-122 922.9663,-86 1087.0337,-86 1087.0337,-122"/>
<text text-anchor="middle" x="1005" y="-99.8" font-family="Times,serif" font-size="14.00" fill="#000000">ProductDetailsComponent</text>
</g>
<!-- ProductDetailsComponent&#45;&gt;ProductModule -->
<g id="edge3" class="edge">
<title>ProductDetailsComponent&#45;&gt;ProductModule</title>
<path fill="none" stroke="#000000" d="M997.375,-122.2396C997.375,-137.5706 997.375,-157 997.375,-157 997.375,-157 759.8054,-157 759.8054,-157"/>
<polygon fill="#000000" stroke="#000000" points="759.8054,-153.5001 749.8054,-157 759.8053,-160.5001 759.8054,-153.5001"/>
</g>
<!-- ProductImagesComponent -->
<g id="node4" class="node">
<title>ProductImagesComponent</title>
<polygon fill="#ffffb3" stroke="#000000" points="904.8061,-122 739.1939,-122 739.1939,-86 904.8061,-86 904.8061,-122"/>
<text text-anchor="middle" x="822" y="-99.8" font-family="Times,serif" font-size="14.00" fill="#000000">ProductImagesComponent</text>
</g>
<!-- ProductImagesComponent&#45;&gt;ProductModule -->
<g id="edge4" class="edge">
<title>ProductImagesComponent&#45;&gt;ProductModule</title>
<path fill="none" stroke="#000000" d="M744.4481,-122.1061C744.4481,-122.1061 744.4481,-140.991 744.4481,-140.991"/>
<polygon fill="#000000" stroke="#000000" points="740.9482,-140.9909 744.4481,-150.991 747.9482,-140.991 740.9482,-140.9909"/>
</g>
<!-- ProductPriceInfoComponent -->
<g id="node5" class="node">
<title>ProductPriceInfoComponent</title>
<polygon fill="#ffffb3" stroke="#000000" points="721.465,-122 544.535,-122 544.535,-86 721.465,-86 721.465,-122"/>
<text text-anchor="middle" x="633" y="-99.8" font-family="Times,serif" font-size="14.00" fill="#000000">ProductPriceInfoComponent</text>
</g>
<!-- ProductPriceInfoComponent&#45;&gt;ProductModule -->
<g id="edge5" class="edge">
<title>ProductPriceInfoComponent&#45;&gt;ProductModule</title>
<path fill="none" stroke="#000000" d="M683.9667,-122.1061C683.9667,-122.1061 683.9667,-140.991 683.9667,-140.991"/>
<polygon fill="#000000" stroke="#000000" points="680.4668,-140.9909 683.9667,-150.991 687.4668,-140.991 680.4668,-140.9909"/>
</g>
<!-- ProductDescriptionComponent -->
<g id="node6" class="node">
<title>ProductDescriptionComponent</title>
<polygon fill="#ffffb3" stroke="#000000" points="526.1937,-122 335.8063,-122 335.8063,-86 526.1937,-86 526.1937,-122"/>
<text text-anchor="middle" x="431" y="-99.8" font-family="Times,serif" font-size="14.00" fill="#000000">ProductDescriptionComponent</text>
</g>
<!-- ProductDescriptionComponent&#45;&gt;ProductModule -->
<g id="edge6" class="edge">
<title>ProductDescriptionComponent&#45;&gt;ProductModule</title>
<path fill="none" stroke="#000000" d="M522.4322,-122.2396C522.4322,-137.5706 522.4322,-157 522.4322,-157 522.4322,-157 636.2734,-157 636.2734,-157"/>
<polygon fill="#000000" stroke="#000000" points="636.2735,-160.5001 646.2734,-157 636.2734,-153.5001 636.2735,-160.5001"/>
</g>
<!-- ProductVariantsComponent -->
<g id="node7" class="node">
<title>ProductVariantsComponent</title>
<polygon fill="#ffffb3" stroke="#000000" points="318.3033,-122 145.6967,-122 145.6967,-86 318.3033,-86 318.3033,-122"/>
<text text-anchor="middle" x="232" y="-99.8" font-family="Times,serif" font-size="14.00" fill="#000000">ProductVariantsComponent</text>
</g>
<!-- ProductVariantsComponent&#45;&gt;ProductModule -->
<g id="edge7" class="edge">
<title>ProductVariantsComponent&#45;&gt;ProductModule</title>
<path fill="none" stroke="#000000" d="M312.6524,-122.0225C312.6524,-139.3734 312.6524,-163 312.6524,-163 312.6524,-163 636.4302,-163 636.4302,-163"/>
<polygon fill="#000000" stroke="#000000" points="636.4302,-166.5001 646.4302,-163 636.4301,-159.5001 636.4302,-166.5001"/>
</g>
<!-- ProductDetailPageComponent  -->
<g id="node10" class="node">
<title>ProductDetailPageComponent </title>
<polygon fill="#fb8072" stroke="#000000" points="1279.8003,-252 1090.1997,-252 1090.1997,-216 1279.8003,-216 1279.8003,-252"/>
<text text-anchor="middle" x="1185" y="-229.8" font-family="Times,serif" font-size="14.00" fill="#000000">ProductDetailPageComponent </text>
</g>
<!-- ProductModule&#45;&gt;ProductDetailPageComponent  -->
<g id="edge9" class="edge">
<title>ProductModule&#45;&gt;ProductDetailPageComponent </title>
<path fill="none" stroke="#000000" stroke-dasharray="5,2" d="M749.8609,-175C858.045,-175 1097.8297,-175 1097.8297,-175 1097.8297,-175 1097.8297,-205.9775 1097.8297,-205.9775"/>
<polygon fill="#000000" stroke="#000000" points="1094.3298,-205.9774 1097.8297,-215.9775 1101.3298,-205.9775 1094.3298,-205.9774"/>
</g>
<!-- ProductDetailsComponent  -->
<g id="node11" class="node">
<title>ProductDetailsComponent </title>
<polygon fill="#fb8072" stroke="#000000" points="1072.033,-252 903.967,-252 903.967,-216 1072.033,-216 1072.033,-252"/>
<text text-anchor="middle" x="988" y="-229.8" font-family="Times,serif" font-size="14.00" fill="#000000">ProductDetailsComponent </text>
</g>
<!-- ProductModule&#45;&gt;ProductDetailsComponent  -->
<g id="edge10" class="edge">
<title>ProductModule&#45;&gt;ProductDetailsComponent </title>
<path fill="none" stroke="#000000" stroke-dasharray="5,2" d="M749.6639,-181C813.4748,-181 913.6932,-181 913.6932,-181 913.6932,-181 913.6932,-205.7604 913.6932,-205.7604"/>
<polygon fill="#000000" stroke="#000000" points="910.1933,-205.7604 913.6932,-215.7604 917.1933,-205.7604 910.1933,-205.7604"/>
</g>
<!-- ProductImagesComponent  -->
<g id="node12" class="node">
<title>ProductImagesComponent </title>
<polygon fill="#fb8072" stroke="#000000" points="886.3059,-252 717.6941,-252 717.6941,-216 886.3059,-216 886.3059,-252"/>
<text text-anchor="middle" x="802" y="-229.8" font-family="Times,serif" font-size="14.00" fill="#000000">ProductImagesComponent </text>
</g>
<!-- ProductModule&#45;&gt;ProductImagesComponent  -->
<g id="edge11" class="edge">
<title>ProductModule&#45;&gt;ProductImagesComponent </title>
<path fill="none" stroke="#000000" stroke-dasharray="5,2" d="M733.5731,-187.1061C733.5731,-187.1061 733.5731,-205.991 733.5731,-205.991"/>
<polygon fill="#000000" stroke="#000000" points="730.0732,-205.9909 733.5731,-215.991 737.0732,-205.991 730.0732,-205.9909"/>
</g>
<!-- ProductPriceInfoComponent  -->
<g id="node13" class="node">
<title>ProductPriceInfoComponent </title>
<polygon fill="#fb8072" stroke="#000000" points="699.4656,-252 518.5344,-252 518.5344,-216 699.4656,-216 699.4656,-252"/>
<text text-anchor="middle" x="609" y="-229.8" font-family="Times,serif" font-size="14.00" fill="#000000">ProductPriceInfoComponent </text>
</g>
<!-- ProductModule&#45;&gt;ProductPriceInfoComponent  -->
<g id="edge12" class="edge">
<title>ProductModule&#45;&gt;ProductPriceInfoComponent </title>
<path fill="none" stroke="#000000" stroke-dasharray="5,2" d="M672.8417,-187.1061C672.8417,-187.1061 672.8417,-205.991 672.8417,-205.991"/>
<polygon fill="#000000" stroke="#000000" points="669.3418,-205.9909 672.8417,-215.991 676.3418,-205.991 669.3418,-205.9909"/>
</g>
<!-- ProductDescriptionComponent  -->
<g id="node14" class="node">
<title>ProductDescriptionComponent </title>
<polygon fill="#fb8072" stroke="#000000" points="500.6938,-252 307.3062,-252 307.3062,-216 500.6938,-216 500.6938,-252"/>
<text text-anchor="middle" x="404" y="-229.8" font-family="Times,serif" font-size="14.00" fill="#000000">ProductDescriptionComponent </text>
</g>
<!-- ProductModule&#45;&gt;ProductDescriptionComponent  -->
<g id="edge13" class="edge">
<title>ProductModule&#45;&gt;ProductDescriptionComponent </title>
<path fill="none" stroke="#000000" stroke-dasharray="5,2" d="M646.3866,-181C565.5906,-181 418.375,-181 418.375,-181 418.375,-181 418.375,-205.7604 418.375,-205.7604"/>
<polygon fill="#000000" stroke="#000000" points="414.8751,-205.7604 418.375,-215.7604 421.8751,-205.7604 414.8751,-205.7604"/>
</g>
<!-- ProductVariantsComponent  -->
<g id="node15" class="node">
<title>ProductVariantsComponent </title>
<polygon fill="#fb8072" stroke="#000000" points="288.8031,-252 113.1969,-252 113.1969,-216 288.8031,-216 288.8031,-252"/>
<text text-anchor="middle" x="201" y="-229.8" font-family="Times,serif" font-size="14.00" fill="#000000">ProductVariantsComponent </text>
</g>
<!-- ProductModule&#45;&gt;ProductVariantsComponent  -->
<g id="edge14" class="edge">
<title>ProductModule&#45;&gt;ProductVariantsComponent </title>
<path fill="none" stroke="#000000" stroke-dasharray="5,2" d="M646.1081,-175C521.829,-175 217.375,-175 217.375,-175 217.375,-175 217.375,-205.9775 217.375,-205.9775"/>
<polygon fill="#000000" stroke="#000000" points="213.8751,-205.9774 217.375,-215.9775 220.8751,-205.9775 213.8751,-205.9774"/>
</g>
<!-- SharedModule -->
<g id="node9" class="node">
<title>SharedModule</title>
<polygon fill="#8dd3c7" stroke="#000000" points="122.4231,-122 119.4231,-126 98.4231,-126 95.4231,-122 23.5769,-122 23.5769,-86 122.4231,-86 122.4231,-122"/>
<text text-anchor="middle" x="73" y="-99.8" font-family="Times,serif" font-size="14.00" fill="#000000">SharedModule</text>
</g>
<!-- SharedModule&#45;&gt;ProductModule -->
<g id="edge8" class="edge">
<title>SharedModule&#45;&gt;ProductModule</title>
<path fill="none" stroke="#000000" d="M117.6548,-122.1061C117.6548,-141.3391 117.6548,-169 117.6548,-169 117.6548,-169 636.2431,-169 636.2431,-169"/>
<polygon fill="#000000" stroke="#000000" points="636.2432,-172.5001 646.2431,-169 636.2431,-165.5001 636.2432,-172.5001"/>
</g>
</g>
</svg>
