<?xml version="1.0" encoding="UTF-8" standalone="no"?>
<!DOCTYPE svg PUBLIC "-//W3C//DTD SVG 1.1//EN"
 "http://www.w3.org/Graphics/SVG/1.1/DTD/svg11.dtd">
<!-- Generated by graphviz version 2.40.1 (20161225.0304)
 -->
<!-- Title: dependencies Pages: 1 -->
<svg width="1269pt" height="211pt"
 viewBox="0.00 0.00 1269.00 211.00" xmlns="http://www.w3.org/2000/svg" xmlns:xlink="http://www.w3.org/1999/xlink">
<g id="graph0" class="graph" transform="scale(1 1) rotate(0) translate(4 207)">
<title>dependencies</title>
<polygon fill="#ffffff" stroke="transparent" points="-4,4 -4,-207 1265,-207 1265,4 -4,4"/>
<text text-anchor="start" x="609.5091" y="-42.4" font-family="sans-serif" font-weight="bold" font-size="14.00" fill="#000000">Legend</text>
<polygon fill="#ffffb3" stroke="transparent" points="396.5,-10 396.5,-30 416.5,-30 416.5,-10 396.5,-10"/>
<text text-anchor="start" x="420.129" y="-15.4" font-family="sans-serif" font-size="14.00" fill="#000000"> &#160;Declarations</text>
<polygon fill="#8dd3c7" stroke="transparent" points="509.5,-10 509.5,-30 529.5,-30 529.5,-10 509.5,-10"/>
<text text-anchor="start" x="533.2251" y="-15.4" font-family="sans-serif" font-size="14.00" fill="#000000"> &#160;Module</text>
<polygon fill="#80b1d3" stroke="transparent" points="595.5,-10 595.5,-30 615.5,-30 615.5,-10 595.5,-10"/>
<text text-anchor="start" x="619.2812" y="-15.4" font-family="sans-serif" font-size="14.00" fill="#000000"> &#160;Bootstrap</text>
<polygon fill="#fdb462" stroke="transparent" points="692.5,-10 692.5,-30 712.5,-30 712.5,-10 692.5,-10"/>
<text text-anchor="start" x="716.1732" y="-15.4" font-family="sans-serif" font-size="14.00" fill="#000000"> &#160;Providers</text>
<polygon fill="#fb8072" stroke="transparent" points="788.5,-10 788.5,-30 808.5,-30 808.5,-10 788.5,-10"/>
<text text-anchor="start" x="812.2258" y="-15.4" font-family="sans-serif" font-size="14.00" fill="#000000"> &#160;Exports</text>
<g id="clust1" class="cluster">
<title>cluster_PaymentModule</title>
<polygon fill="none" stroke="#000000" stroke-dasharray="1,5" points="8,-70 8,-195 1253,-195 1253,-70 8,-70"/>
</g>
<g id="clust2" class="cluster">
<title>cluster_PaymentModule_declarations</title>
<polygon fill="none" stroke="#000000" points="188,-78 188,-130 1245,-130 1245,-78 188,-78"/>
</g>
<g id="clust12" class="cluster">
<title>cluster_PaymentModule_providers</title>
<polygon fill="none" stroke="#000000" points="16,-78 16,-130 180,-130 180,-78 16,-78"/>
</g>
<!-- PaymentComponent -->
<g id="node1" class="node">
<title>PaymentComponent</title>
<polygon fill="#ffffb3" stroke="#000000" points="1237.3258,-122 1106.6742,-122 1106.6742,-86 1237.3258,-86 1237.3258,-122"/>
<text text-anchor="middle" x="1172" y="-99.8" font-family="Times,serif" font-size="14.00" fill="#000000">PaymentComponent</text>
</g>
<!-- PaymentModule -->
<g id="node7" class="node">
<title>PaymentModule</title>
<polygon fill="#8dd3c7" stroke="#000000" points="682.0438,-187 679.0438,-191 658.0438,-191 655.0438,-187 573.9562,-187 573.9562,-151 682.0438,-151 682.0438,-187"/>
<text text-anchor="middle" x="628" y="-164.8" font-family="Times,serif" font-size="14.00" fill="#000000">PaymentModule</text>
</g>
<!-- PaymentComponent&#45;&gt;PaymentModule -->
<g id="edge1" class="edge">
<title>PaymentComponent&#45;&gt;PaymentModule</title>
<path fill="none" stroke="#000000" d="M1172,-122.2921C1172,-144.2057 1172,-178 1172,-178 1172,-178 692.1496,-178 692.1496,-178"/>
<polygon fill="#000000" stroke="#000000" points="692.1497,-174.5001 682.1496,-178 692.1496,-181.5001 692.1497,-174.5001"/>
</g>
<!-- PaymentModesListComponent -->
<g id="node2" class="node">
<title>PaymentModesListComponent</title>
<polygon fill="#ffffb3" stroke="#000000" points="1089.2077,-122 898.7923,-122 898.7923,-86 1089.2077,-86 1089.2077,-122"/>
<text text-anchor="middle" x="994" y="-99.8" font-family="Times,serif" font-size="14.00" fill="#000000">PaymentModesListComponent</text>
</g>
<!-- PaymentModesListComponent&#45;&gt;PaymentModule -->
<g id="edge2" class="edge">
<title>PaymentModesListComponent&#45;&gt;PaymentModule</title>
<path fill="none" stroke="#000000" d="M994,-122.1061C994,-141.3391 994,-169 994,-169 994,-169 692.3987,-169 692.3987,-169"/>
<polygon fill="#000000" stroke="#000000" points="692.3987,-165.5001 682.3987,-169 692.3987,-172.5001 692.3987,-165.5001"/>
</g>
<!-- PaymentModeComponent -->
<g id="node3" class="node">
<title>PaymentModeComponent</title>
<polygon fill="#ffffb3" stroke="#000000" points="880.4846,-122 717.5154,-122 717.5154,-86 880.4846,-86 880.4846,-122"/>
<text text-anchor="middle" x="799" y="-99.8" font-family="Times,serif" font-size="14.00" fill="#000000">PaymentModeComponent</text>
</g>
<!-- PaymentModeComponent&#45;&gt;PaymentModule -->
<g id="edge3" class="edge">
<title>PaymentModeComponent&#45;&gt;PaymentModule</title>
<path fill="none" stroke="#000000" d="M799,-122.027C799,-138.3976 799,-160 799,-160 799,-160 692.1055,-160 692.1055,-160"/>
<polygon fill="#000000" stroke="#000000" points="692.1055,-156.5001 682.1055,-160 692.1054,-163.5001 692.1055,-156.5001"/>
</g>
<!-- CreditCardComponent -->
<g id="node4" class="node">
<title>CreditCardComponent</title>
<polygon fill="#ffffb3" stroke="#000000" points="699.5379,-122 556.4621,-122 556.4621,-86 699.5379,-86 699.5379,-122"/>
<text text-anchor="middle" x="628" y="-99.8" font-family="Times,serif" font-size="14.00" fill="#000000">CreditCardComponent</text>
</g>
<!-- CreditCardComponent&#45;&gt;PaymentModule -->
<g id="edge4" class="edge">
<title>CreditCardComponent&#45;&gt;PaymentModule</title>
<path fill="none" stroke="#000000" d="M628,-122.1061C628,-122.1061 628,-140.991 628,-140.991"/>
<polygon fill="#000000" stroke="#000000" points="624.5001,-140.9909 628,-150.991 631.5001,-140.991 624.5001,-140.9909"/>
</g>
<!-- NetBankingComponent -->
<g id="node5" class="node">
<title>NetBankingComponent</title>
<polygon fill="#ffffb3" stroke="#000000" points="538.486,-122 389.514,-122 389.514,-86 538.486,-86 538.486,-122"/>
<text text-anchor="middle" x="464" y="-99.8" font-family="Times,serif" font-size="14.00" fill="#000000">NetBankingComponent</text>
</g>
<!-- NetBankingComponent&#45;&gt;PaymentModule -->
<g id="edge5" class="edge">
<title>NetBankingComponent&#45;&gt;PaymentModule</title>
<path fill="none" stroke="#000000" d="M464,-122.027C464,-138.3976 464,-160 464,-160 464,-160 563.8458,-160 563.8458,-160"/>
<polygon fill="#000000" stroke="#000000" points="563.8458,-163.5001 573.8458,-160 563.8457,-156.5001 563.8458,-163.5001"/>
</g>
<!-- CashOnDeliveryComponent -->
<g id="node6" class="node">
<title>CashOnDeliveryComponent</title>
<polygon fill="#ffffb3" stroke="#000000" points="371.9129,-122 196.0871,-122 196.0871,-86 371.9129,-86 371.9129,-122"/>
<text text-anchor="middle" x="284" y="-99.8" font-family="Times,serif" font-size="14.00" fill="#000000">CashOnDeliveryComponent</text>
</g>
<!-- CashOnDeliveryComponent&#45;&gt;PaymentModule -->
<g id="edge6" class="edge">
<title>CashOnDeliveryComponent&#45;&gt;PaymentModule</title>
<path fill="none" stroke="#000000" d="M284,-122.1061C284,-141.3391 284,-169 284,-169 284,-169 563.8716,-169 563.8716,-169"/>
<polygon fill="#000000" stroke="#000000" points="563.8716,-172.5001 573.8716,-169 563.8715,-165.5001 563.8716,-172.5001"/>
</g>
<!-- PaymentService -->
<g id="node8" class="node">
<title>PaymentService</title>
<ellipse fill="#fdb462" stroke="#000000" cx="98" cy="-104" rx="73.5734" ry="18"/>
<text text-anchor="middle" x="98" y="-99.8" font-family="Times,serif" font-size="14.00" fill="#000000">PaymentService</text>
</g>
<!-- PaymentService&#45;&gt;PaymentModule -->
<g id="edge7" class="edge">
<title>PaymentService&#45;&gt;PaymentModule</title>
<path fill="none" stroke="#000000" d="M98,-122.2921C98,-144.2057 98,-178 98,-178 98,-178 563.7714,-178 563.7714,-178"/>
<polygon fill="#000000" stroke="#000000" points="563.7715,-181.5001 573.7714,-178 563.7714,-174.5001 563.7715,-181.5001"/>
</g>
</g>
</svg>
