<?xml version="1.0" encoding="UTF-8" standalone="no"?>
<!DOCTYPE svg PUBLIC "-//W3C//DTD SVG 1.1//EN"
 "http://www.w3.org/Graphics/SVG/1.1/DTD/svg11.dtd">
<!-- Generated by graphviz version 2.40.1 (20161225.0304)
 -->
<!-- Title: dependencies Pages: 1 -->
<svg width="1314pt" height="211pt"
 viewBox="0.00 0.00 1314.00 211.00" xmlns="http://www.w3.org/2000/svg" xmlns:xlink="http://www.w3.org/1999/xlink">
<g id="graph0" class="graph" transform="scale(1 1) rotate(0) translate(4 207)">
<title>dependencies</title>
<polygon fill="#ffffff" stroke="transparent" points="-4,4 -4,-207 1310,-207 1310,4 -4,4"/>
<text text-anchor="start" x="632.0091" y="-42.4" font-family="sans-serif" font-weight="bold" font-size="14.00" fill="#000000">Legend</text>
<polygon fill="#ffffb3" stroke="transparent" points="419,-10 419,-30 439,-30 439,-10 419,-10"/>
<text text-anchor="start" x="442.629" y="-15.4" font-family="sans-serif" font-size="14.00" fill="#000000"> &#160;Declarations</text>
<polygon fill="#8dd3c7" stroke="transparent" points="532,-10 532,-30 552,-30 552,-10 532,-10"/>
<text text-anchor="start" x="555.7251" y="-15.4" font-family="sans-serif" font-size="14.00" fill="#000000"> &#160;Module</text>
<polygon fill="#80b1d3" stroke="transparent" points="618,-10 618,-30 638,-30 638,-10 618,-10"/>
<text text-anchor="start" x="641.7812" y="-15.4" font-family="sans-serif" font-size="14.00" fill="#000000"> &#160;Bootstrap</text>
<polygon fill="#fdb462" stroke="transparent" points="715,-10 715,-30 735,-30 735,-10 715,-10"/>
<text text-anchor="start" x="738.6732" y="-15.4" font-family="sans-serif" font-size="14.00" fill="#000000"> &#160;Providers</text>
<polygon fill="#fb8072" stroke="transparent" points="811,-10 811,-30 831,-30 831,-10 811,-10"/>
<text text-anchor="start" x="834.7258" y="-15.4" font-family="sans-serif" font-size="14.00" fill="#000000"> &#160;Exports</text>
<g id="clust1" class="cluster">
<title>cluster_CoreModule</title>
<polygon fill="none" stroke="#000000" stroke-dasharray="1,5" points="8,-70 8,-195 1298,-195 1298,-70 8,-70"/>
</g>
<g id="clust6" class="cluster">
<title>cluster_CoreModule_providers</title>
<polygon fill="none" stroke="#000000" points="16,-78 16,-130 1290,-130 1290,-78 16,-78"/>
</g>
<!-- VariantParserService -->
<g id="node1" class="node">
<title>VariantParserService</title>
<ellipse fill="#fdb462" stroke="#000000" cx="1189" cy="-104" rx="93.1484" ry="18"/>
<text text-anchor="middle" x="1189" y="-99.8" font-family="Times,serif" font-size="14.00" fill="#000000">VariantParserService</text>
</g>
<!-- CoreModule -->
<g id="node8" class="node">
<title>CoreModule</title>
<polygon fill="#8dd3c7" stroke="#000000" points="688.2619,-187 685.2619,-191 664.2619,-191 661.2619,-187 601.7381,-187 601.7381,-151 688.2619,-151 688.2619,-187"/>
<text text-anchor="middle" x="645" y="-164.8" font-family="Times,serif" font-size="14.00" fill="#000000">CoreModule</text>
</g>
<!-- VariantParserService&#45;&gt;CoreModule -->
<g id="edge1" class="edge">
<title>VariantParserService&#45;&gt;CoreModule</title>
<path fill="none" stroke="#000000" d="M1189,-122.2921C1189,-144.2057 1189,-178 1189,-178 1189,-178 698.5982,-178 698.5982,-178"/>
<polygon fill="#000000" stroke="#000000" points="698.5983,-174.5001 688.5982,-178 698.5982,-181.5001 698.5983,-174.5001"/>
</g>
<!-- VariantRetriverService -->
<g id="node2" class="node">
<title>VariantRetriverService</title>
<ellipse fill="#fdb462" stroke="#000000" cx="977" cy="-104" rx="100.6727" ry="18"/>
<text text-anchor="middle" x="977" y="-99.8" font-family="Times,serif" font-size="14.00" fill="#000000">VariantRetriverService</text>
</g>
<!-- VariantRetriverService&#45;&gt;CoreModule -->
<g id="edge2" class="edge">
<title>VariantRetriverService&#45;&gt;CoreModule</title>
<path fill="none" stroke="#000000" d="M977,-122.1061C977,-141.3391 977,-169 977,-169 977,-169 698.4032,-169 698.4032,-169"/>
<polygon fill="#000000" stroke="#000000" points="698.4032,-165.5001 688.4032,-169 698.4032,-172.5001 698.4032,-165.5001"/>
</g>
<!-- AuthService -->
<g id="node3" class="node">
<title>AuthService</title>
<ellipse fill="#fdb462" stroke="#000000" cx="799" cy="-104" rx="59.1083" ry="18"/>
<text text-anchor="middle" x="799" y="-99.8" font-family="Times,serif" font-size="14.00" fill="#000000">AuthService</text>
</g>
<!-- AuthService&#45;&gt;CoreModule -->
<g id="edge3" class="edge">
<title>AuthService&#45;&gt;CoreModule</title>
<path fill="none" stroke="#000000" d="M799,-122.027C799,-138.3976 799,-160 799,-160 799,-160 698.3074,-160 698.3074,-160"/>
<polygon fill="#000000" stroke="#000000" points="698.3074,-156.5001 688.3074,-160 698.3074,-163.5001 698.3074,-156.5001"/>
</g>
<!-- CheckoutService -->
<g id="node4" class="node">
<title>CheckoutService</title>
<ellipse fill="#fdb462" stroke="#000000" cx="645" cy="-104" rx="77.0062" ry="18"/>
<text text-anchor="middle" x="645" y="-99.8" font-family="Times,serif" font-size="14.00" fill="#000000">CheckoutService</text>
</g>
<!-- CheckoutService&#45;&gt;CoreModule -->
<g id="edge4" class="edge">
<title>CheckoutService&#45;&gt;CoreModule</title>
<path fill="none" stroke="#000000" d="M645,-122.1061C645,-122.1061 645,-140.991 645,-140.991"/>
<polygon fill="#000000" stroke="#000000" points="641.5001,-140.9909 645,-150.991 648.5001,-140.991 641.5001,-140.9909"/>
</g>
<!-- ProductService -->
<g id="node5" class="node">
<title>ProductService</title>
<ellipse fill="#fdb462" stroke="#000000" cx="480" cy="-104" rx="70.0616" ry="18"/>
<text text-anchor="middle" x="480" y="-99.8" font-family="Times,serif" font-size="14.00" fill="#000000">ProductService</text>
</g>
<!-- ProductService&#45;&gt;CoreModule -->
<g id="edge5" class="edge">
<title>ProductService&#45;&gt;CoreModule</title>
<path fill="none" stroke="#000000" d="M480,-122.027C480,-138.3976 480,-160 480,-160 480,-160 591.6482,-160 591.6482,-160"/>
<polygon fill="#000000" stroke="#000000" points="591.6482,-163.5001 601.6482,-160 591.6482,-156.5001 591.6482,-163.5001"/>
</g>
<!-- UserService -->
<g id="node6" class="node">
<title>UserService</title>
<ellipse fill="#fdb462" stroke="#000000" cx="334" cy="-104" rx="58.4415" ry="18"/>
<text text-anchor="middle" x="334" y="-99.8" font-family="Times,serif" font-size="14.00" fill="#000000">UserService</text>
</g>
<!-- UserService&#45;&gt;CoreModule -->
<g id="edge6" class="edge">
<title>UserService&#45;&gt;CoreModule</title>
<path fill="none" stroke="#000000" d="M334,-122.1061C334,-141.3391 334,-169 334,-169 334,-169 591.4293,-169 591.4293,-169"/>
<polygon fill="#000000" stroke="#000000" points="591.4294,-172.5001 601.4293,-169 591.4293,-165.5001 591.4294,-172.5001"/>
</g>
<!-- CanActivateViaAuthGuard -->
<g id="node7" class="node">
<title>CanActivateViaAuthGuard</title>
<ellipse fill="#fdb462" stroke="#000000" cx="141" cy="-104" rx="116.8731" ry="18"/>
<text text-anchor="middle" x="141" y="-99.8" font-family="Times,serif" font-size="14.00" fill="#000000">CanActivateViaAuthGuard</text>
</g>
<!-- CanActivateViaAuthGuard&#45;&gt;CoreModule -->
<g id="edge7" class="edge">
<title>CanActivateViaAuthGuard&#45;&gt;CoreModule</title>
<path fill="none" stroke="#000000" d="M141,-122.2921C141,-144.2057 141,-178 141,-178 141,-178 591.593,-178 591.593,-178"/>
<polygon fill="#000000" stroke="#000000" points="591.5931,-181.5001 601.593,-178 591.593,-174.5001 591.5931,-181.5001"/>
</g>
</g>
</svg>
