<?xml version="1.0" encoding="UTF-8" standalone="no"?>
<!DOCTYPE svg PUBLIC "-//W3C//DTD SVG 1.1//EN"
 "http://www.w3.org/Graphics/SVG/1.1/DTD/svg11.dtd">
<!-- Generated by graphviz version 2.40.1 (20161225.0304)
 -->
<!-- Title: dependencies Pages: 1 -->
<svg width="907pt" height="211pt"
 viewBox="0.00 0.00 907.00 211.00" xmlns="http://www.w3.org/2000/svg" xmlns:xlink="http://www.w3.org/1999/xlink">
<g id="graph0" class="graph" transform="scale(1 1) rotate(0) translate(4 207)">
<title>dependencies</title>
<polygon fill="#ffffff" stroke="transparent" points="-4,4 -4,-207 903,-207 903,4 -4,4"/>
<text text-anchor="start" x="428.5091" y="-42.4" font-family="sans-serif" font-weight="bold" font-size="14.00" fill="#000000">Legend</text>
<polygon fill="#ffffb3" stroke="transparent" points="215.5,-10 215.5,-30 235.5,-30 235.5,-10 215.5,-10"/>
<text text-anchor="start" x="239.129" y="-15.4" font-family="sans-serif" font-size="14.00" fill="#000000"> &#160;Declarations</text>
<polygon fill="#8dd3c7" stroke="transparent" points="328.5,-10 328.5,-30 348.5,-30 348.5,-10 328.5,-10"/>
<text text-anchor="start" x="352.2251" y="-15.4" font-family="sans-serif" font-size="14.00" fill="#000000"> &#160;Module</text>
<polygon fill="#80b1d3" stroke="transparent" points="414.5,-10 414.5,-30 434.5,-30 434.5,-10 414.5,-10"/>
<text text-anchor="start" x="438.2812" y="-15.4" font-family="sans-serif" font-size="14.00" fill="#000000"> &#160;Bootstrap</text>
<polygon fill="#fdb462" stroke="transparent" points="511.5,-10 511.5,-30 531.5,-30 531.5,-10 511.5,-10"/>
<text text-anchor="start" x="535.1732" y="-15.4" font-family="sans-serif" font-size="14.00" fill="#000000"> &#160;Providers</text>
<polygon fill="#fb8072" stroke="transparent" points="607.5,-10 607.5,-30 627.5,-30 627.5,-10 607.5,-10"/>
<text text-anchor="start" x="631.2258" y="-15.4" font-family="sans-serif" font-size="14.00" fill="#000000"> &#160;Exports</text>
<g id="clust1" class="cluster">
<title>cluster_AddressModule</title>
<polygon fill="none" stroke="#000000" stroke-dasharray="1,5" points="8,-70 8,-195 891,-195 891,-70 8,-70"/>
</g>
<g id="clust2" class="cluster">
<title>cluster_AddressModule_declarations</title>
<polygon fill="none" stroke="#000000" points="184,-78 184,-130 883,-130 883,-78 184,-78"/>
</g>
<g id="clust10" class="cluster">
<title>cluster_AddressModule_providers</title>
<polygon fill="none" stroke="#000000" points="16,-78 16,-130 176,-130 176,-78 16,-78"/>
</g>
<!-- AddressComponent -->
<g id="node1" class="node">
<title>AddressComponent</title>
<polygon fill="#ffffb3" stroke="#000000" points="874.7036,-122 747.2964,-122 747.2964,-86 874.7036,-86 874.7036,-122"/>
<text text-anchor="middle" x="811" y="-99.8" font-family="Times,serif" font-size="14.00" fill="#000000">AddressComponent</text>
</g>
<!-- AddressModule -->
<g id="node5" class="node">
<title>AddressModule</title>
<polygon fill="#8dd3c7" stroke="#000000" points="524.9216,-187 521.9216,-191 500.9216,-191 497.9216,-187 419.0784,-187 419.0784,-151 524.9216,-151 524.9216,-187"/>
<text text-anchor="middle" x="472" y="-164.8" font-family="Times,serif" font-size="14.00" fill="#000000">AddressModule</text>
</g>
<!-- AddressComponent&#45;&gt;AddressModule -->
<g id="edge1" class="edge">
<title>AddressComponent&#45;&gt;AddressModule</title>
<path fill="none" stroke="#000000" d="M811,-122.2843C811,-143.3211 811,-175 811,-175 811,-175 534.9688,-175 534.9688,-175"/>
<polygon fill="#000000" stroke="#000000" points="534.9688,-171.5001 524.9688,-175 534.9687,-178.5001 534.9688,-171.5001"/>
</g>
<!-- AddAddressComponent -->
<g id="node2" class="node">
<title>AddAddressComponent</title>
<polygon fill="#ffffb3" stroke="#000000" points="729.8103,-122 578.1897,-122 578.1897,-86 729.8103,-86 729.8103,-122"/>
<text text-anchor="middle" x="654" y="-99.8" font-family="Times,serif" font-size="14.00" fill="#000000">AddAddressComponent</text>
</g>
<!-- AddAddressComponent&#45;&gt;AddressModule -->
<g id="edge2" class="edge">
<title>AddAddressComponent&#45;&gt;AddressModule</title>
<path fill="none" stroke="#000000" d="M654,-122.0225C654,-139.3734 654,-163 654,-163 654,-163 535.1312,-163 535.1312,-163"/>
<polygon fill="#000000" stroke="#000000" points="535.1312,-159.5001 525.1312,-163 535.1312,-166.5001 535.1312,-159.5001"/>
</g>
<!-- DeliveryAddressComponent -->
<g id="node3" class="node">
<title>DeliveryAddressComponent</title>
<polygon fill="#ffffb3" stroke="#000000" points="560.1811,-122 383.8189,-122 383.8189,-86 560.1811,-86 560.1811,-122"/>
<text text-anchor="middle" x="472" y="-99.8" font-family="Times,serif" font-size="14.00" fill="#000000">DeliveryAddressComponent</text>
</g>
<!-- DeliveryAddressComponent&#45;&gt;AddressModule -->
<g id="edge3" class="edge">
<title>DeliveryAddressComponent&#45;&gt;AddressModule</title>
<path fill="none" stroke="#000000" d="M472,-122.1061C472,-122.1061 472,-140.991 472,-140.991"/>
<polygon fill="#000000" stroke="#000000" points="468.5001,-140.9909 472,-150.991 475.5001,-140.991 468.5001,-140.9909"/>
</g>
<!-- DeliveryOptionsComponent -->
<g id="node4" class="node">
<title>DeliveryOptionsComponent</title>
<polygon fill="#ffffb3" stroke="#000000" points="366.1428,-122 191.8572,-122 191.8572,-86 366.1428,-86 366.1428,-122"/>
<text text-anchor="middle" x="279" y="-99.8" font-family="Times,serif" font-size="14.00" fill="#000000">DeliveryOptionsComponent</text>
</g>
<!-- DeliveryOptionsComponent&#45;&gt;AddressModule -->
<g id="edge4" class="edge">
<title>DeliveryOptionsComponent&#45;&gt;AddressModule</title>
<path fill="none" stroke="#000000" d="M279,-122.0225C279,-139.3734 279,-163 279,-163 279,-163 409.2619,-163 409.2619,-163"/>
<polygon fill="#000000" stroke="#000000" points="409.2619,-166.5001 419.2619,-163 409.2619,-159.5001 409.2619,-166.5001"/>
</g>
<!-- AddressService -->
<g id="node6" class="node">
<title>AddressService</title>
<ellipse fill="#fdb462" stroke="#000000" cx="96" cy="-104" rx="71.766" ry="18"/>
<text text-anchor="middle" x="96" y="-99.8" font-family="Times,serif" font-size="14.00" fill="#000000">AddressService</text>
</g>
<!-- AddressService&#45;&gt;AddressModule -->
<g id="edge5" class="edge">
<title>AddressService&#45;&gt;AddressModule</title>
<path fill="none" stroke="#000000" d="M96,-122.2843C96,-143.3211 96,-175 96,-175 96,-175 408.9259,-175 408.9259,-175"/>
<polygon fill="#000000" stroke="#000000" points="408.9259,-178.5001 418.9259,-175 408.9258,-171.5001 408.9259,-178.5001"/>
</g>
</g>
</svg>
