<?xml version="1.0" encoding="UTF-8" standalone="no"?>
<!DOCTYPE svg PUBLIC "-//W3C//DTD SVG 1.1//EN"
 "http://www.w3.org/Graphics/SVG/1.1/DTD/svg11.dtd">
<!-- Generated by graphviz version 2.40.1 (20161225.0304)
 -->
<!-- Title: dependencies Pages: 1 -->
<svg width="1072pt" height="284pt"
 viewBox="0.00 0.00 1072.00 284.00" xmlns="http://www.w3.org/2000/svg" xmlns:xlink="http://www.w3.org/1999/xlink">
<g id="graph0" class="graph" transform="scale(1 1) rotate(0) translate(4 280)">
<title>dependencies</title>
<polygon fill="#ffffff" stroke="transparent" points="-4,4 -4,-280 1068,-280 1068,4 -4,4"/>
<text text-anchor="start" x="511.0091" y="-42.4" font-family="sans-serif" font-weight="bold" font-size="14.00" fill="#000000">Legend</text>
<polygon fill="#ffffb3" stroke="transparent" points="298,-10 298,-30 318,-30 318,-10 298,-10"/>
<text text-anchor="start" x="321.629" y="-15.4" font-family="sans-serif" font-size="14.00" fill="#000000"> &#160;Declarations</text>
<polygon fill="#8dd3c7" stroke="transparent" points="411,-10 411,-30 431,-30 431,-10 411,-10"/>
<text text-anchor="start" x="434.7251" y="-15.4" font-family="sans-serif" font-size="14.00" fill="#000000"> &#160;Module</text>
<polygon fill="#80b1d3" stroke="transparent" points="497,-10 497,-30 517,-30 517,-10 497,-10"/>
<text text-anchor="start" x="520.7812" y="-15.4" font-family="sans-serif" font-size="14.00" fill="#000000"> &#160;Bootstrap</text>
<polygon fill="#fdb462" stroke="transparent" points="594,-10 594,-30 614,-30 614,-10 594,-10"/>
<text text-anchor="start" x="617.6732" y="-15.4" font-family="sans-serif" font-size="14.00" fill="#000000"> &#160;Providers</text>
<polygon fill="#fb8072" stroke="transparent" points="690,-10 690,-30 710,-30 710,-10 690,-10"/>
<text text-anchor="start" x="713.7258" y="-15.4" font-family="sans-serif" font-size="14.00" fill="#000000"> &#160;Exports</text>
<g id="clust1" class="cluster">
<title>cluster_AppModule</title>
<polygon fill="none" stroke="#000000" stroke-dasharray="1,5" points="8,-70 8,-268 1056,-268 1056,-70 8,-70"/>
</g>
<g id="clust2" class="cluster">
<title>cluster_AppModule_declarations</title>
<polygon fill="none" stroke="#000000" points="544,-78 544,-130 1048,-130 1048,-78 544,-78"/>
</g>
<g id="clust6" class="cluster">
<title>cluster_AppModule_imports</title>
<polygon fill="none" stroke="#000000" points="16,-78 16,-130 536,-130 536,-78 16,-78"/>
</g>
<g id="clust8" class="cluster">
<title>cluster_AppModule_bootstrap</title>
<polygon fill="none" stroke="#000000" points="393,-208 393,-260 517,-260 517,-208 393,-208"/>
</g>
<!-- AppComponent -->
<g id="node1" class="node">
<title>AppComponent</title>
<polygon fill="#ffffb3" stroke="#000000" points="1039.9399,-122 934.0601,-122 934.0601,-86 1039.9399,-86 1039.9399,-122"/>
<text text-anchor="middle" x="987" y="-99.8" font-family="Times,serif" font-size="14.00" fill="#000000">AppComponent</text>
</g>
<!-- AppModule -->
<g id="node4" class="node">
<title>AppModule</title>
<polygon fill="#8dd3c7" stroke="#000000" points="496.6571,-187 493.6571,-191 472.6571,-191 469.6571,-187 413.3429,-187 413.3429,-151 496.6571,-151 496.6571,-187"/>
<text text-anchor="middle" x="455" y="-164.8" font-family="Times,serif" font-size="14.00" fill="#000000">AppModule</text>
</g>
<!-- AppComponent&#45;&gt;AppModule -->
<g id="edge1" class="edge">
<title>AppComponent&#45;&gt;AppModule</title>
<path fill="none" stroke="#000000" d="M987,-122.2921C987,-144.2057 987,-178 987,-178 987,-178 506.7451,-178 506.7451,-178"/>
<polygon fill="#000000" stroke="#000000" points="506.7452,-174.5001 496.7451,-178 506.7451,-181.5001 506.7452,-174.5001"/>
</g>
<!-- CheckoutHeaderComponent -->
<g id="node2" class="node">
<title>CheckoutHeaderComponent</title>
<polygon fill="#ffffb3" stroke="#000000" points="916.9003,-122 741.0997,-122 741.0997,-86 916.9003,-86 916.9003,-122"/>
<text text-anchor="middle" x="829" y="-99.8" font-family="Times,serif" font-size="14.00" fill="#000000">CheckoutHeaderComponent</text>
</g>
<!-- CheckoutHeaderComponent&#45;&gt;AppModule -->
<g id="edge2" class="edge">
<title>CheckoutHeaderComponent&#45;&gt;AppModule</title>
<path fill="none" stroke="#000000" d="M829,-122.1061C829,-141.3391 829,-169 829,-169 829,-169 506.8139,-169 506.8139,-169"/>
<polygon fill="#000000" stroke="#000000" points="506.8139,-165.5001 496.8139,-169 506.8139,-172.5001 506.8139,-165.5001"/>
</g>
<!-- CheckoutFooterComponent -->
<g id="node3" class="node">
<title>CheckoutFooterComponent</title>
<polygon fill="#ffffb3" stroke="#000000" points="723.5378,-122 552.4622,-122 552.4622,-86 723.5378,-86 723.5378,-122"/>
<text text-anchor="middle" x="638" y="-99.8" font-family="Times,serif" font-size="14.00" fill="#000000">CheckoutFooterComponent</text>
</g>
<!-- CheckoutFooterComponent&#45;&gt;AppModule -->
<g id="edge3" class="edge">
<title>CheckoutFooterComponent&#45;&gt;AppModule</title>
<path fill="none" stroke="#000000" d="M638,-122.027C638,-138.3976 638,-160 638,-160 638,-160 506.9839,-160 506.9839,-160"/>
<polygon fill="#000000" stroke="#000000" points="506.9839,-156.5001 496.9839,-160 506.9839,-163.5001 506.9839,-156.5001"/>
</g>
<!-- AppComponent  -->
<g id="node10" class="node">
<title>AppComponent </title>
<polygon fill="#80b1d3" stroke="#000000" points="509.439,-252 400.561,-252 400.561,-216 509.439,-216 509.439,-252"/>
<text text-anchor="middle" x="455" y="-229.8" font-family="Times,serif" font-size="14.00" fill="#000000">AppComponent </text>
</g>
<!-- AppModule&#45;&gt;AppComponent  -->
<g id="edge9" class="edge">
<title>AppModule&#45;&gt;AppComponent </title>
<path fill="none" stroke="#000000" stroke-dasharray="1,5" d="M455,-187.1061C455,-187.1061 455,-205.991 455,-205.991"/>
<polygon fill="#000000" stroke="#000000" points="451.5001,-205.9909 455,-215.991 458.5001,-205.991 451.5001,-205.9909"/>
</g>
<!-- ! -->
<g id="node5" class="node">
<title>!</title>
<polygon fill="#8dd3c7" stroke="#000000" points="528,-122 525,-126 504,-126 501,-122 474,-122 474,-86 528,-86 528,-122"/>
<text text-anchor="middle" x="501" y="-99.8" font-family="Times,serif" font-size="14.00" fill="#000000">!</text>
</g>
<!-- !&#45;&gt;AppModule -->
<g id="edge4" class="edge">
<title>!&#45;&gt;AppModule</title>
<path fill="none" stroke="#000000" d="M485.4141,-122.1061C485.4141,-122.1061 485.4141,-140.991 485.4141,-140.991"/>
<polygon fill="#000000" stroke="#000000" points="481.9142,-140.9909 485.4141,-150.991 488.9142,-140.991 481.9142,-140.9909"/>
</g>
<!-- HomeModule -->
<g id="node6" class="node">
<title>HomeModule</title>
<polygon fill="#8dd3c7" stroke="#000000" points="455.7619,-122 452.7619,-126 431.7619,-126 428.7619,-122 362.2381,-122 362.2381,-86 455.7619,-86 455.7619,-122"/>
<text text-anchor="middle" x="409" y="-99.8" font-family="Times,serif" font-size="14.00" fill="#000000">HomeModule</text>
</g>
<!-- HomeModule&#45;&gt;AppModule -->
<g id="edge5" class="edge">
<title>HomeModule&#45;&gt;AppModule</title>
<path fill="none" stroke="#000000" d="M434.5263,-122.1061C434.5263,-122.1061 434.5263,-140.991 434.5263,-140.991"/>
<polygon fill="#000000" stroke="#000000" points="431.0264,-140.9909 434.5263,-150.991 438.0264,-140.991 431.0264,-140.9909"/>
</g>
<!-- LayoutModule -->
<g id="node7" class="node">
<title>LayoutModule</title>
<polygon fill="#8dd3c7" stroke="#000000" points="344.7078,-122 341.7078,-126 320.7078,-126 317.7078,-122 245.2922,-122 245.2922,-86 344.7078,-86 344.7078,-122"/>
<text text-anchor="middle" x="295" y="-99.8" font-family="Times,serif" font-size="14.00" fill="#000000">LayoutModule</text>
</g>
<!-- LayoutModule&#45;&gt;AppModule -->
<g id="edge6" class="edge">
<title>LayoutModule&#45;&gt;AppModule</title>
<path fill="none" stroke="#000000" d="M295,-122.027C295,-138.3976 295,-160 295,-160 295,-160 402.9619,-160 402.9619,-160"/>
<polygon fill="#000000" stroke="#000000" points="402.9619,-163.5001 412.9619,-160 402.9618,-156.5001 402.9619,-163.5001"/>
</g>
<!-- CoreModule -->
<g id="node8" class="node">
<title>CoreModule</title>
<polygon fill="#8dd3c7" stroke="#000000" points="227.2619,-122 224.2619,-126 203.2619,-126 200.2619,-122 140.7381,-122 140.7381,-86 227.2619,-86 227.2619,-122"/>
<text text-anchor="middle" x="184" y="-99.8" font-family="Times,serif" font-size="14.00" fill="#000000">CoreModule</text>
</g>
<!-- CoreModule&#45;&gt;AppModule -->
<g id="edge7" class="edge">
<title>CoreModule&#45;&gt;AppModule</title>
<path fill="none" stroke="#000000" d="M184,-122.1061C184,-141.3391 184,-169 184,-169 184,-169 403.2502,-169 403.2502,-169"/>
<polygon fill="#000000" stroke="#000000" points="403.2502,-172.5001 413.2502,-169 403.2501,-165.5001 403.2502,-172.5001"/>
</g>
<!-- SharedModule -->
<g id="node9" class="node">
<title>SharedModule</title>
<polygon fill="#8dd3c7" stroke="#000000" points="122.4231,-122 119.4231,-126 98.4231,-126 95.4231,-122 23.5769,-122 23.5769,-86 122.4231,-86 122.4231,-122"/>
<text text-anchor="middle" x="73" y="-99.8" font-family="Times,serif" font-size="14.00" fill="#000000">SharedModule</text>
</g>
<!-- SharedModule&#45;&gt;AppModule -->
<g id="edge8" class="edge">
<title>SharedModule&#45;&gt;AppModule</title>
<path fill="none" stroke="#000000" d="M73,-122.2921C73,-144.2057 73,-178 73,-178 73,-178 403.0266,-178 403.0266,-178"/>
<polygon fill="#000000" stroke="#000000" points="403.0266,-181.5001 413.0266,-178 403.0266,-174.5001 403.0266,-181.5001"/>
</g>
</g>
</svg>
